<svg width="366" height="370" viewBox="0 0 366 370" fill="none" xmlns="http://www.w3.org/2000/svg">
<path d="M0 42.6609C0 19.2898 18.942 0.34375 42.3082 0.34375H323.081C346.446 0.34375 365.388 19.2898 365.388 42.6609V327.34C365.388 350.712 346.446 369.658 323.081 369.658H42.3082C18.942 369.658 0 350.712 0 327.34V42.6609Z" fill="#F6E458"/>
<path d="M234.157 82.896C213.998 77.104 193.435 76.3168 172.481 78.1913C160.754 79.4099 149.481 81.7382 138.607 85.8236C115.103 94.6542 97.4562 109.948 86.9333 132.975C79.3893 149.484 76.6628 167.02 76.3786 185.014C76.0783 204.028 78.4608 222.781 82.2464 241.373C85.6778 258.224 90.2474 274.746 96.7736 290.695C97.3936 292.21 98.1659 292.721 99.8209 292.718C120.461 292.674 141.102 292.674 161.744 292.674C167.854 292.674 173.964 292.674 180.075 292.673C180.543 292.673 181.011 292.647 181.549 292.617C181.823 292.603 182.116 292.586 182.437 292.572C182.313 292.277 182.203 292.006 182.098 291.751C181.894 291.252 181.716 290.817 181.517 290.391C180.024 287.197 178.501 284.018 176.977 280.837C173.673 273.939 170.369 267.04 167.38 260.007C158.315 238.678 151.374 216.716 149.255 193.469C148.321 183.212 148.451 173.014 151.296 163.019C154.548 151.594 161.527 143.529 173.098 140.157C183.723 137.062 194.496 137.082 205.063 140.5C214.494 143.55 220.643 149.994 223.259 159.642C225.267 167.051 225.266 174.54 223.747 182.01C222.576 187.761 220.221 193.009 215.981 197.207C208.374 204.738 198.876 206.47 188.683 205.893C186.87 205.79 185.062 205.592 183.199 205.386C182.326 205.291 181.442 205.194 180.539 205.104C180.564 205.393 180.578 205.658 180.593 205.907C180.618 206.397 180.641 206.822 180.742 207.228C181.177 208.974 181.591 210.727 182.005 212.48C183.002 216.702 183.999 220.924 185.281 225.058C187.799 233.175 190.726 241.098 194.045 248.832C217.704 246.985 239.494 241.103 262.622 227.217C262.969 226.998 263.285 226.8 263.601 226.603C273.536 220.416 281.576 212.392 287.121 202.03C296.101 185.249 297.851 167.304 295.183 148.782C292.43 129.666 283.853 113.62 269.089 101.035C258.849 92.3051 247.008 86.5882 234.157 82.896Z" fill="black"/>
</svg>
